<svg width="171" height="171" viewBox="0 0 171 171" fill="none" xmlns="http://www.w3.org/2000/svg">
<path d="M49.4093 151.246C28.3454 140.585 9.01904 98.4353 13.428 76.2259C17.8371 54.0165 52.2462 21.8666 75.887 18.0016C99.5396 14.1365 144.658 32.6345 155.308 53.0118C165.958 73.3773 157.424 123.848 139.776 140.218C122.128 156.589 70.4732 161.908 49.4093 151.246Z" fill="#ACF1FF"/>
<path d="M76.2225 20.5897C87.967 18.9121 103.031 23.6077 115.857 30.4692C128.68 37.3297 140.743 47.148 145.785 57.1624H145.782C150.848 67.2146 151.332 82.6204 149.003 96.74C146.746 110.415 141.587 124.49 133.635 132.617L132.856 133.385C124.541 141.288 109.181 146.806 94.1721 149.332C79.1754 151.856 62.7731 151.689 52.1719 146.623V146.626C41.5863 141.573 31.0993 129.042 23.8307 115.896C20.134 109.211 17.125 102.109 15.2805 95.3167C13.4543 88.5911 12.6748 81.8194 13.8079 75.9552V75.9526C14.9425 70.0962 18.2328 63.9554 22.4801 58.1675C26.776 52.3135 32.2907 46.4987 38.287 41.2706C50.0847 30.9843 64.5988 22.2471 76.2225 20.5923V20.5897ZM111.397 38.8059C99.2139 32.2878 86.3354 28.6989 77.5601 29.9523H77.5575C68.6616 31.218 55.8478 38.5051 44.5022 48.3971C38.9266 53.2584 33.9129 58.57 30.1031 63.7617C26.2447 69.0196 23.8499 73.8457 23.0931 77.7524C22.3417 81.6451 22.7746 86.836 24.4047 92.8391C26.0171 98.7767 28.71 105.175 32.1082 111.32C39.0299 123.838 48.3078 134.303 56.2444 138.091H56.247C64.1684 141.877 78.1777 142.434 92.6034 140.005C107.018 137.579 120.094 132.47 126.342 126.532C132.508 120.664 137.464 108.595 139.673 95.2025C141.883 81.8126 141.065 68.8103 137.338 61.4165L137.336 61.4139C133.595 53.9824 123.583 45.3253 111.397 38.8059Z" fill="#16153A"/>
<path d="M46.9543 97.4476C50.0522 92.4555 66.8483 105.934 64.0423 110.146C61.2362 114.358 45.3885 114.208 45.8651 109.107C46.3417 104.006 54.7455 108.724 56.1745 106.731C57.6034 104.738 43.8564 102.44 46.9543 97.4476Z" fill="#14103A"/>
<path d="M51.4004 96.4976C53.4043 97.137 55.7324 98.5059 57.8626 100.152C59.9932 101.798 61.9461 103.738 63.1929 105.542C63.8157 106.444 64.2706 107.324 64.4774 108.125C64.6843 108.926 64.6492 109.676 64.2464 110.281C63.4926 111.413 61.8997 112.213 60.0137 112.715C58.1141 113.221 55.8609 113.439 53.7143 113.364C51.5709 113.289 49.5101 112.923 48.0071 112.239C46.5127 111.559 45.4848 110.518 45.6189 109.083C45.6819 108.41 45.8786 107.88 46.1905 107.473C46.5032 107.065 46.9188 106.796 47.3938 106.63C48.3303 106.303 49.5221 106.364 50.6927 106.51C51.2819 106.584 51.8792 106.681 52.4466 106.77C53.0174 106.859 53.5592 106.94 54.0473 106.98C54.5375 107.021 54.9594 107.019 55.2938 106.954C55.6267 106.889 55.8458 106.765 55.974 106.587C56.0292 106.509 56.0369 106.449 56.0276 106.394C56.0167 106.329 55.9754 106.24 55.8756 106.127C55.6728 105.898 55.2978 105.643 54.7804 105.357C54.2689 105.075 53.6441 104.776 52.9622 104.456C52.2831 104.137 51.5491 103.797 50.828 103.433C49.3921 102.709 47.9671 101.874 47.1017 100.886C46.6663 100.388 46.3599 99.837 46.2747 99.231C46.1892 98.621 46.3317 97.9822 46.7434 97.3184C47.1762 96.6209 47.8504 96.2512 48.6599 96.1422C49.4604 96.0346 50.3994 96.1783 51.4004 96.4976ZM51.2509 96.968C50.2857 96.66 49.4245 96.5377 48.7245 96.6319C48.034 96.725 47.5055 97.0274 47.1639 97.5774C46.802 98.1606 46.6955 98.685 46.7626 99.1631C46.8306 99.6456 47.0777 100.111 47.4725 100.562C48.2687 101.471 49.6145 102.27 51.0496 102.993C51.7631 103.353 52.4895 103.689 53.1722 104.01C53.8522 104.329 54.4909 104.634 55.0186 104.925C55.5399 105.213 55.9811 105.503 56.2446 105.8C56.3779 105.951 56.4825 106.122 56.5144 106.312C56.5479 106.511 56.4977 106.703 56.3747 106.875C56.146 107.194 55.789 107.358 55.3879 107.437C54.9873 107.515 54.512 107.512 54.006 107.47C53.4981 107.428 52.9407 107.347 52.3707 107.257C51.7977 107.167 51.2097 107.071 50.63 106.999C49.462 106.853 48.3733 106.81 47.5556 107.095C47.1535 107.236 46.8234 107.454 46.5799 107.772C46.3359 108.09 46.166 108.528 46.1097 109.13C46.0056 110.244 46.7802 111.137 48.2104 111.788C49.6323 112.435 51.6225 112.799 53.7318 112.873C55.8377 112.946 58.0423 112.73 59.8878 112.239C61.7471 111.744 63.1862 110.983 63.8354 110.009C64.1335 109.561 64.1888 108.971 64.0023 108.248C63.8156 107.525 63.3943 106.7 62.789 105.823C61.5791 104.072 59.6657 102.166 57.5616 100.54C55.4566 98.914 53.1797 97.5835 51.2509 96.968Z" fill="#14103A"/>
<path d="M92.8046 113.486C93.4919 107.652 71.9557 107.731 71.5264 112.774C71.0971 117.816 83.5867 127.572 86.3921 123.285C89.1976 118.998 79.6845 117.453 79.8086 115.004C79.9327 112.555 92.1174 119.321 92.8046 113.486Z" fill="#14103A"/>
<path d="M89.9184 109.973C87.9525 109.225 85.2785 108.845 82.5869 108.805C79.8947 108.766 77.1581 109.067 75.0587 109.702C74.0099 110.019 73.1055 110.424 72.4449 110.921C71.7841 111.419 71.3441 112.028 71.282 112.752C71.1667 114.107 71.9141 115.725 73.0765 117.293C74.2474 118.871 75.8737 120.446 77.5994 121.725C79.3227 123.001 81.1629 123.999 82.7646 124.4C84.3572 124.799 85.8098 124.625 86.5993 123.419C86.9689 122.854 87.1454 122.317 87.1551 121.804C87.1648 121.29 87.0074 120.82 86.7391 120.395C86.2103 119.556 85.2405 118.86 84.2335 118.246C83.7267 117.936 83.199 117.64 82.6997 117.356C82.1975 117.071 81.7236 116.796 81.3167 116.524C80.9081 116.25 80.5787 115.986 80.3578 115.727C80.138 115.468 80.0436 115.235 80.0548 115.015C80.0597 114.921 80.0911 114.869 80.1329 114.831C80.1821 114.787 80.2695 114.744 80.4179 114.718C80.7192 114.665 81.1716 114.699 81.7543 114.798C82.3302 114.896 83.0053 115.051 83.7382 115.225C84.4679 115.399 85.2542 115.59 86.0448 115.755C87.619 116.083 89.2542 116.317 90.5467 116.083C91.1972 115.966 91.7804 115.725 92.2247 115.304C92.6716 114.88 92.9581 114.292 93.0497 113.516C93.1457 112.701 92.8487 111.992 92.2834 111.402C91.7243 110.819 90.9003 110.347 89.9184 109.973ZM89.7422 110.434C90.6891 110.795 91.4389 111.235 91.9277 111.745C92.4099 112.248 92.6349 112.814 92.5594 113.457C92.4791 114.139 92.2357 114.615 91.8853 114.947C91.5315 115.282 91.0482 115.492 90.4585 115.599C89.2692 115.814 87.7189 115.6 86.1456 115.272C85.3633 115.109 84.5856 114.92 83.852 114.745C83.1212 114.571 82.4315 114.412 81.8372 114.311C81.2503 114.211 80.7244 114.163 80.333 114.232C80.135 114.267 79.9465 114.335 79.8032 114.464C79.6527 114.599 79.5724 114.78 79.5617 114.991C79.5419 115.383 79.7187 115.734 79.9837 116.046C80.2483 116.356 80.6219 116.65 81.0438 116.932C81.4673 117.216 81.9539 117.5 82.4554 117.785C82.9597 118.072 83.4794 118.363 83.9781 118.667C84.9827 119.28 85.861 119.925 86.3228 120.658C86.5498 121.018 86.6721 121.394 86.6646 121.795C86.6569 122.196 86.5171 122.644 86.1861 123.15C85.573 124.087 84.411 124.302 82.8867 123.921C81.3712 123.541 79.5879 122.586 77.8921 121.329C76.1991 120.075 74.609 118.533 73.4715 116.999C72.3256 115.453 71.6739 113.962 71.7732 112.795C71.8188 112.259 72.1437 111.763 72.7396 111.314C73.3361 110.865 74.1801 110.481 75.1995 110.173C77.2369 109.557 79.9215 109.258 82.5802 109.297C85.24 109.336 87.8499 109.714 89.7422 110.434Z" fill="#14103A"/>
</svg>
