<svg width="269" height="253" viewBox="0 0 269 253" fill="none" xmlns="http://www.w3.org/2000/svg">
<path d="M71.1015 202.536C38.6787 188.591 26.6753 76.7429 57.8219 40.2724C100.329 0.896074 199.167 -0.333833 237.748 25.5475C276.329 51.4288 255.36 190.581 216.394 208.429C177.427 226.278 111.63 219.967 71.1015 202.536Z" fill="#D1F7FF"/>
<path d="M44.4575 218.5C10.6136 206.424 4.2467 119.951 31.4793 59.919C73.3059 18.826 179.439 19.9986 220.121 43.5378C260.802 67.077 252.605 203.845 213.458 223.5C174.31 243.155 86.7624 233.595 44.4575 218.5Z" fill="#D1F7FF"/>
<path d="M233.187 68.1007C241.814 90.156 253.273 179.971 211.746 200.218C177.514 216.909 88.1298 219.111 49.7754 188.287C11.421 157.464 21.7703 86.1535 49.0117 51.7859C76.253 17.4183 166.256 16.3236 201.918 34.9345" stroke="#14103A" strokeWidth="22" stroke-linecap="round"/>
<path d="M59.1238 121.117C66.3901 114.028 89.8037 142.776 83.3442 148.684C76.8847 154.591 49.8389 148.29 52.6649 140.02C55.4909 131.75 68.0045 142.776 71.234 140.02C74.4636 137.263 51.8575 128.205 59.1238 121.117Z" fill="#14103A" stroke="#14103A"/>
<path d="M145.982 164.091C147.457 154.083 109.574 153.197 108.588 161.854C107.602 170.511 129.125 187.892 134.255 180.648C139.386 173.404 122.724 170.294 123.054 166.085C123.384 161.876 144.507 174.099 145.982 164.091Z" fill="#14103A" stroke="#14103A"/>
</svg>
