<svg width="238" height="210" viewBox="0 0 238 210" fill="none" xmlns="http://www.w3.org/2000/svg">
<path d="M0.000482196 109.926C0.000425947 58.6306 41.3643 30.074 88.856 22.1417C136.348 14.2094 166.477 23.7283 190.989 50.1694C215.501 76.6106 231.205 124.438 197.709 162.121C172.66 190.302 133.795 219.708 81.1962 206.701C32.6831 194.704 0.000540137 162.764 0.000482196 109.926Z" fill="#D1FFE1"/>
<path d="M25.8501 89.3549C25.85 38.0592 65.3022 9.50261 110.599 1.57031C142.235 -3.96979 177.512 5.12238 192.273 29.2768C192.273 29.2768 215.988 -12.3225 234.295 5.56966C248.783 19.7298 215.989 48.0636 215.989 48.0636C227.455 72.717 232.055 105.454 215.989 140.651C201.988 171.322 153.46 199.137 103.293 186.129C57.0222 174.132 25.8501 142.193 25.8501 89.3549Z" fill="#D1FFE1"/>
<path d="M82.3939 31.6374C82.3939 31.6374 50.4948 35.0172 28.3364 67.7057C6.17801 100.394 23.4904 136.949 38.9124 154.199C54.3343 171.449 87.5096 186.01 109.942 186.01C132.375 186.01 165.308 178.912 183.3 157.83C201.293 136.748 207.489 102.449 203.082 77.7502C198.675 53.0513 179.509 23.1005 157.25 19.3354C134.992 15.5702 115.69 25.4279 115.69 44.0342C115.689 62.6406 138.175 72.8184 160.738 67.7057C183.3 62.5929 216.401 19.3354 216.401 19.3354" stroke="#14103A" strokeWidth="22" strokeLinecap="round"/>
<path d="M52.249 96.1167C59.0612 89.0281 81.0114 117.776 74.9556 123.683C68.8999 129.59 43.5444 123.29 46.1938 115.02C48.8432 106.749 60.5746 117.776 63.6023 115.02C66.63 112.263 45.4369 103.205 52.249 96.1167Z" fill="#14103A" stroke="#14103A"/>
<path d="M132.437 140.56C134.85 130.973 98.9605 126.188 97.1495 134.511C95.3386 142.833 114.022 161.976 119.627 155.458C125.231 148.94 109.721 144.187 110.46 140.126C111.199 136.065 130.024 150.146 132.437 140.56Z" fill="#14103A" stroke="#14103A"/>
</svg>
