<svg width="171" height="171" viewBox="0 0 171 171" fill="none" xmlns="http://www.w3.org/2000/svg">
<path d="M81.986 14.4674C106.348 13.4391 146.135 33.9937 154.433 56.7705C162.731 79.559 151.384 136.779 131.797 151.175C112.199 165.56 57.4824 157.83 36.8912 143.114C16.312 128.41 0.756321 84.3342 8.26227 62.8931C15.78 41.452 57.6242 15.4839 81.986 14.4674Z" fill="#B2FFCD"/>
<path d="M81.9819 15.8356C93.612 15.1515 108.974 20.6701 121.956 28.4395C128.548 32.3845 134.763 37.0493 139.818 42.0822C144.83 47.073 148.938 52.6623 150.939 58.4986C152.921 64.2763 153.286 71.5749 152.656 79.1405C152.018 86.7907 150.33 95.1052 147.895 103.13C145.46 111.154 142.241 119.01 138.48 125.717C134.761 132.35 130.318 138.209 125.283 141.858C120.203 145.541 113.429 147.728 106.251 148.891C99.0028 150.066 90.9634 150.259 83.0338 149.681C67.4003 148.542 51.1449 144.316 41.8621 137.682C32.4018 130.921 25.1506 117.861 21.0321 104.639C16.9105 91.4066 15.4866 76.6035 19.0712 65.8225C22.6314 55.1157 33.012 43.03 44.6048 33.6389C56.1694 24.2707 70.2366 16.5335 81.9793 15.8356H81.9819ZM117.099 36.5529C104.778 29.1788 91.3922 24.7504 82.5377 25.271L82.5403 25.2736C73.7983 25.7931 61.6527 31.9985 50.5577 40.9862C39.4909 49.9512 30.7612 60.6371 28.0447 68.8066C25.3535 76.9015 26.2121 89.4669 30.0628 101.829C33.9172 114.203 40.3316 124.966 47.3605 129.99C54.5672 135.14 68.7718 139.162 83.7195 140.251C91.0807 140.787 98.364 140.59 104.736 139.557C111.178 138.513 116.326 136.674 119.733 134.205C123.185 131.702 126.818 127.181 130.231 121.094C133.602 115.082 136.573 107.876 138.846 100.385C141.118 92.8961 142.657 85.2424 143.23 78.3562C143.811 71.3845 143.369 65.5748 141.994 61.5658C140.638 57.6101 137.602 53.2179 133.148 48.7827C128.735 44.3893 123.16 40.1797 117.099 36.5529Z" fill="#16153A"/>
<path d="M46.766 96.4232C50.1532 91.1927 67.6886 105.829 64.6269 110.238C61.5652 114.647 44.7628 114.164 45.3726 108.765C45.9823 103.365 54.7975 108.54 56.3535 106.456C57.9095 104.371 43.3788 101.654 46.766 96.4232Z" fill="#14103A"/>
<path d="M51.499 95.5082C53.6108 96.2271 56.0526 97.7231 58.2777 99.5115C60.5041 101.301 62.5365 103.401 63.8219 105.341C64.4635 106.309 64.9282 107.25 65.1312 108.103C65.3342 108.957 65.2822 109.755 64.842 110.389C64.0196 111.573 62.3135 112.388 60.3037 112.882C58.2787 113.379 55.8837 113.563 53.6087 113.44C51.3369 113.317 49.1604 112.884 47.5805 112.128C46.0097 111.376 44.9422 110.255 45.1138 108.735C45.1943 108.023 45.4124 107.463 45.7519 107.037C46.0918 106.611 46.5399 106.337 47.0465 106.171C48.0461 105.844 49.308 105.929 50.5459 106.108C51.1692 106.198 51.8005 106.314 52.4005 106.42C53.0039 106.527 53.5763 106.623 54.093 106.676C54.6116 106.729 55.0579 106.736 55.4137 106.674C55.7686 106.612 56.0037 106.485 56.1435 106.298C56.2035 106.217 56.216 106.154 56.2073 106.095C56.1969 106.026 56.1522 105.932 56.0489 105.811C55.8386 105.564 55.4477 105.285 54.9052 104.972C54.3685 104.662 53.7111 104.333 52.9943 103.98C52.2804 103.628 51.5094 103.25 50.7517 102.85C49.2442 102.053 47.7511 101.139 46.8535 100.074C46.4017 99.5371 46.0877 98.947 46.0095 98.3025C45.9309 97.6532 46.0948 96.9771 46.5456 96.2808C47.0189 95.5501 47.7417 95.1728 48.6023 95.0739C49.453 94.9762 50.4447 95.1494 51.499 95.5082ZM51.3317 96.0027C50.3147 95.6565 49.4058 95.508 48.6618 95.5934C47.9275 95.6779 47.3593 95.988 46.9858 96.5642C46.5899 97.1755 46.4659 97.7312 46.5274 98.2397C46.5897 98.7528 46.8439 99.251 47.2534 99.7371C48.0792 100.717 49.489 101.592 50.9957 102.389C51.7446 102.784 52.5079 103.156 53.225 103.509C53.9399 103.862 54.6118 104.199 55.1655 104.519C55.7124 104.834 56.1736 105.15 56.447 105.471C56.5851 105.633 56.6942 105.816 56.7243 106.018C56.7558 106.23 56.6964 106.433 56.5624 106.613C56.3132 106.946 55.9315 107.115 55.5044 107.19C55.0781 107.265 54.5755 107.252 54.04 107.197C53.5021 107.142 52.9132 107.044 52.3105 106.937C51.7044 106.83 51.0833 106.713 50.4698 106.624C49.2348 106.446 48.0822 106.381 47.2094 106.667C46.7799 106.807 46.4234 107.032 46.1585 107.364C45.8936 107.697 45.7052 108.157 45.6332 108.793C45.4999 109.974 46.3016 110.938 47.8054 111.658C49.3001 112.373 51.4019 112.798 53.6371 112.919C55.8689 113.04 58.2105 112.857 60.1777 112.373C62.16 111.887 63.7041 111.11 64.4125 110.089C64.7378 109.621 64.8073 108.994 64.6242 108.224C64.441 107.454 64.0095 106.571 63.3857 105.63C62.1384 103.748 60.1487 101.685 57.9505 99.9182C55.7515 98.1507 53.3643 96.6947 51.3317 96.0027Z" fill="#14103A"/>
<path d="M93.3379 114.302C94.3415 108.215 71.7475 107.255 71.0528 112.524C70.3581 117.793 82.9863 128.631 86.1367 124.27C89.2872 119.909 79.3834 117.827 79.6323 115.264C79.8811 112.701 92.3343 120.39 93.3379 114.302Z" fill="#14103A"/>
<path d="M90.4796 110.479C88.4539 109.599 85.6697 109.07 82.8486 108.898C80.0257 108.725 77.1379 108.909 74.9046 109.473C73.7896 109.755 72.8215 110.136 72.1047 110.625C71.388 111.115 70.8962 111.732 70.796 112.489C70.6094 113.904 71.3164 115.639 72.4598 117.34C73.6116 119.053 75.2427 120.783 76.9911 122.208C78.7369 123.63 80.618 124.764 82.2787 125.263C83.9299 125.758 85.4617 125.648 86.3483 124.421C86.7633 123.846 86.9755 123.291 87.0108 122.754C87.0458 122.216 86.9015 121.715 86.641 121.256C86.1269 120.35 85.1449 119.571 84.1184 118.878C83.6018 118.529 83.061 118.195 82.551 117.873C82.038 117.549 81.5544 117.236 81.1408 116.93C80.7258 116.624 80.394 116.332 80.1749 116.05C79.9567 115.768 79.8675 115.52 79.8896 115.29C79.8993 115.19 79.9357 115.135 79.9815 115.098C80.0352 115.054 80.1286 115.015 80.2841 114.994C80.6027 114.954 81.0774 115.009 81.6842 115.141C82.2834 115.272 82.9827 115.468 83.7426 115.686C84.5002 115.904 85.3158 116.145 86.1377 116.356C87.7731 116.777 89.4756 117.098 90.8428 116.916C91.5312 116.824 92.154 116.602 92.6407 116.182C93.1308 115.759 93.4599 115.154 93.5935 114.344C93.7333 113.494 93.456 112.739 92.8922 112.093C92.334 111.455 91.4917 110.919 90.4796 110.479ZM90.2752 110.954C91.2505 111.378 92.0153 111.876 92.5031 112.434C92.9842 112.985 93.1949 113.59 93.0843 114.26C92.967 114.972 92.685 115.459 92.301 115.791C91.9137 116.125 91.3971 116.32 90.7736 116.403C89.5158 116.571 87.9008 116.274 86.2666 115.853C85.4538 115.644 84.6469 115.408 83.8857 115.19C83.1277 114.972 82.4127 114.77 81.7943 114.636C81.1829 114.503 80.6324 114.428 80.2184 114.481C80.0097 114.508 79.8106 114.57 79.6543 114.698C79.4902 114.832 79.3964 115.018 79.3748 115.238C79.3349 115.649 79.5019 116.028 79.7651 116.367C80.0276 116.706 80.4051 117.031 80.8339 117.348C81.2642 117.665 81.7607 117.986 82.2728 118.309C82.788 118.634 83.3199 118.965 83.8284 119.308C84.8527 120.001 85.7413 120.721 86.1902 121.512C86.4106 121.901 86.5215 122.3 86.4943 122.719C86.4669 123.139 86.2983 123.603 85.9264 124.118C85.2377 125.071 84.0083 125.24 82.4276 124.766C80.8565 124.294 79.0337 123.207 77.3161 121.807C75.6008 120.409 74.0072 118.715 72.8883 117.051C71.7608 115.374 71.1485 113.776 71.3093 112.557C71.3833 111.998 71.7506 111.494 72.397 111.052C73.0445 110.61 73.9482 110.248 75.0326 109.974C77.1997 109.427 80.0297 109.243 82.8167 109.413C85.6052 109.583 88.3252 110.106 90.2752 110.954Z" fill="#14103A"/>
</svg>