<svg width="171" height="171" viewBox="0 0 171 171" fill="none" xmlns="http://www.w3.org/2000/svg">
<path d="M141.88 27.1146C157.731 44.9389 161.372 107.359 150.012 127.784C138.665 148.22 96.2887 156.411 73.759 149.686C51.2175 142.949 17.9786 108.86 14.8344 87.3838C11.6901 65.9072 33.7233 30.8852 54.9055 20.8383C76.0758 10.7915 126.017 9.27856 141.88 27.1146Z" fill="#FFCDB7"/>
<path d="M56.2009 20.7786C66.758 16.4945 82.3794 15.6467 96.8999 17.6387C111.764 19.6778 127.176 24.927 135.347 34.3018C139.479 39.0392 142.664 45.9435 145.035 53.4997C147.434 61.1467 149.126 69.8677 150.055 78.5776C150.985 87.2881 151.165 96.1112 150.481 103.972C149.806 111.728 148.257 118.982 145.435 124.258L145.432 124.256C139.79 134.809 126.783 142.3 113.499 146.456C100.073 150.657 84.8265 151.945 73.4363 148.715V148.713C62.0817 145.489 48.119 135.55 36.8125 124.3C31.0867 118.603 25.8668 112.397 21.8575 106.258C17.8934 100.187 14.8975 93.8554 14.0216 87.948C13.1417 82.0162 14.2007 75.4206 16.3201 68.9656C18.4568 62.4583 21.7732 55.7814 25.7507 49.5521C33.5975 37.2634 44.5596 25.8952 55.1958 21.2045L56.2009 20.7786ZM95.6143 27.0065C81.4806 25.0676 67.311 26.2003 59.0112 29.8581V29.8555C50.8058 33.4741 41.0996 43.0878 33.7217 54.6425C30.0871 60.3348 27.1519 66.2959 25.3066 71.9159C23.4441 77.5884 22.791 82.6116 23.3769 86.5611C23.967 90.5403 26.152 95.5403 29.7739 101.087C33.3509 106.565 38.1227 112.264 43.4822 117.597C54.3473 128.408 66.9352 137.038 76.018 139.618L76.8777 139.846C85.8819 142.12 98.7046 141.177 110.676 137.431C123.174 133.52 133.221 127.046 137.095 119.799V119.797C139.03 116.179 140.429 110.417 141.061 103.154C141.684 95.9957 141.529 87.7915 140.653 79.5827C139.777 71.3728 138.192 63.2778 136.012 56.3306C133.942 49.7337 131.44 44.514 128.76 41.1634L128.22 40.5167C122.372 33.8062 109.871 28.9623 95.6143 27.0065Z" fill="#16153A"/>
<path d="M47.0812 97.0487C50.4151 92.0678 67.066 106.4 64.057 110.596C61.0481 114.791 44.8957 114.082 45.5609 108.898C46.2261 103.714 54.6285 108.819 56.1554 106.837C57.6823 104.855 43.7472 102.03 47.0812 97.0487Z" fill="#14103A"/>
<path d="M51.6487 96.2388C53.6692 96.9612 55.9957 98.4351 58.1095 100.188C60.2243 101.941 62.1462 103.99 63.354 105.874C63.9573 106.815 64.3919 107.728 64.5746 108.552C64.7571 109.375 64.6947 110.141 64.2624 110.743C63.4542 111.87 61.8017 112.629 59.8618 113.074C57.9071 113.523 55.6008 113.666 53.4147 113.514C51.2316 113.362 49.1442 112.915 47.6357 112.165C46.1361 111.419 45.126 110.325 45.3132 108.866C45.401 108.182 45.619 107.647 45.9517 107.242C46.2846 106.838 46.7177 106.58 47.2073 106.428C48.1735 106.127 49.3866 106.229 50.5749 106.419C51.1733 106.515 51.7792 106.636 52.3549 106.746C52.9335 106.858 53.4825 106.959 53.9785 107.017C54.4768 107.075 54.9066 107.089 55.2498 107.034C55.5916 106.98 55.8183 106.862 55.9555 106.684C56.0147 106.607 56.0273 106.546 56.0198 106.489C56.011 106.422 55.9717 106.329 55.8739 106.211C55.6751 105.97 55.3012 105.697 54.7838 105.388C54.2724 105.082 53.6464 104.757 52.9626 104.407C52.281 104.058 51.5437 103.684 50.8208 103.288C49.3823 102.499 47.9604 101.596 47.1128 100.558C46.6866 100.036 46.3921 99.466 46.3263 98.8456C46.2601 98.2199 46.4287 97.5707 46.8725 96.9076C47.3383 96.2122 48.0392 95.8615 48.868 95.7789C49.6878 95.6974 50.6397 95.8781 51.6487 96.2388ZM51.4782 96.7103C50.5053 96.3626 49.6323 96.2073 48.9157 96.2787C48.2083 96.3494 47.657 96.6394 47.2895 97.1885C46.9001 97.7704 46.776 98.3031 46.8278 98.793C46.8804 99.2869 47.1155 99.7686 47.5019 100.242C48.2818 101.197 49.6256 102.058 51.0633 102.846C51.7781 103.238 52.5065 103.607 53.1912 103.958C53.8737 104.307 54.5139 104.642 55.0418 104.958C55.5632 105.269 56.0032 105.578 56.2614 105.891C56.3918 106.049 56.4922 106.227 56.5182 106.422C56.5454 106.626 56.4865 106.821 56.355 106.992C56.1104 107.309 55.7406 107.465 55.3287 107.531C54.9177 107.597 54.4337 107.576 53.9194 107.516C53.4034 107.455 52.8389 107.353 52.2613 107.242C51.68 107.13 51.084 107.008 50.4953 106.914C49.3095 106.724 48.2016 106.646 47.3578 106.908C46.9428 107.037 46.5982 107.247 46.3387 107.562C46.0788 107.879 45.8888 108.318 45.8103 108.93C45.665 110.063 46.4239 111 47.8594 111.714C49.2865 112.424 51.3021 112.863 53.45 113.012C55.5944 113.161 57.8487 113.02 59.7475 112.584C61.6609 112.145 63.1567 111.419 63.853 110.449C64.1723 110.003 64.2485 109.403 64.084 108.66C63.919 107.917 63.5182 107.058 62.9317 106.143C61.7596 104.316 59.875 102.305 57.787 100.574C55.6979 98.8418 53.423 97.4054 51.4782 96.7103Z" fill="#14103A"/>
<path d="M93.1004 114.073C94.1309 108.188 72.2612 107.041 71.5376 112.136C70.8141 117.231 82.9381 127.848 86.0309 123.656C89.1238 119.463 79.5535 117.352 79.8192 114.872C80.0849 112.393 92.0698 119.958 93.1004 114.073Z" fill="#14103A"/>
<path d="M90.3697 110.342C88.4168 109.471 85.7265 108.931 82.9969 108.737C80.2657 108.543 77.4684 108.693 75.3005 109.218C74.2174 109.48 73.2756 109.841 72.5765 110.308C71.8772 110.776 71.3946 111.368 71.2905 112.1C71.0961 113.469 71.7636 115.155 72.8544 116.812C73.9531 118.482 75.5145 120.174 77.1937 121.57C78.8708 122.965 80.6836 124.081 82.2871 124.58C83.8811 125.076 85.3629 124.984 86.2332 123.804C86.6413 123.251 86.8527 122.715 86.8918 122.194C86.9308 121.673 86.7969 121.188 86.549 120.741C86.0599 119.859 85.1154 119.098 84.1283 118.416C83.631 118.073 83.1117 117.742 82.6206 117.425C82.127 117.106 81.6627 116.8 81.2651 116.5C80.8662 116.199 80.5475 115.914 80.338 115.638C80.1294 115.364 80.0456 115.122 80.0692 114.9C80.0795 114.804 80.1129 114.75 80.1574 114.715C80.2097 114.673 80.3022 114.635 80.4541 114.617C80.7629 114.58 81.2201 114.64 81.806 114.773C82.3852 114.906 83.0615 115.102 83.7956 115.321C84.527 115.539 85.3151 115.779 86.1088 115.992C87.688 116.415 89.3332 116.744 90.6587 116.58C91.3261 116.498 91.9324 116.289 92.4076 115.888C92.8864 115.482 93.212 114.9 93.3492 114.117C93.4932 113.294 93.2303 112.559 92.69 111.929C92.1556 111.305 91.3454 110.778 90.3697 110.342ZM90.167 110.801C91.1076 111.221 91.8441 111.709 92.3111 112.255C92.7718 112.793 92.9682 113.381 92.8549 114.029C92.7344 114.717 92.4589 115.187 92.0839 115.504C91.7056 115.824 91.2035 116.009 90.5987 116.084C89.3793 116.234 87.8181 115.931 86.2398 115.509C85.4546 115.298 84.6746 115.06 83.9395 114.841C83.2076 114.623 82.5169 114.422 81.9194 114.285C81.3286 114.15 80.7966 114.07 80.3951 114.118C80.1922 114.142 79.9979 114.202 79.8451 114.325C79.6852 114.453 79.5942 114.632 79.5712 114.845C79.5287 115.242 79.6871 115.609 79.9386 115.941C80.1896 116.271 80.5508 116.59 80.963 116.901C81.3769 117.214 81.8563 117.528 82.3494 117.846C82.845 118.166 83.3551 118.491 83.844 118.829C84.8292 119.509 85.6834 120.215 86.1105 120.985C86.3204 121.364 86.4214 121.752 86.3909 122.158C86.3602 122.565 86.1947 123.012 85.8298 123.506C85.1538 124.423 83.9617 124.577 82.4357 124.102C80.9187 123.63 79.1639 122.558 77.5138 121.186C75.8662 119.816 74.3407 118.159 73.2732 116.536C72.1979 114.902 71.6195 113.35 71.7867 112.172C71.8635 111.63 72.2239 111.144 72.8547 110.722C73.4859 110.3 74.3641 109.96 75.4161 109.706C77.5199 109.196 80.2635 109.046 82.9607 109.237C85.6591 109.429 88.287 109.962 90.167 110.801Z" fill="#14103A"/>
</svg>
