<svg width="287" height="277" viewBox="0 0 287 277" fill="none" xmlns="http://www.w3.org/2000/svg">
<path d="M24.5908 79.8038C49.6016 48.636 96.9029 36.8301 130.768 42.4833C226.671 58.493 250.125 109.345 261.067 142.492C273.918 181.421 256.902 216.991 219.285 246.845C163.942 290.768 91.9096 282.423 45.3514 246.845C13.4476 222.466 -26.8392 143.895 24.5908 79.8038Z" fill="#FFDFD1"/>
<path d="M54.7479 43.4658C78.703 10.6388 125.119 -4.69456 157.555 1.25965C249.41 18.1215 271.874 71.6806 282.355 106.592C294.663 147.593 276.754 195.247 237.294 231.033C202.289 262.779 114.635 242.512 74.2111 209.685C30.7757 174.412 5.48858 110.968 54.7479 43.4658Z" fill="#FFDFD1"/>
<path d="M176.959 33.5288C125.263 10.9572 67.8277 34.6071 44.8558 66.1561C-2.3814 131.031 21.8677 192.005 63.5202 225.904C102.285 257.453 166.312 260.066 207.247 240.884C239.214 225.904 264.965 187.111 264.965 148.905C264.965 110.699 244.321 75.547 225.279 61.6178" stroke="#14103A" stroke-width="25" stroke-linecap="round"/>
<path d="M52.6694 130.333C61.0711 121.872 88.1431 156.184 80.6743 163.235C73.2055 170.285 41.9338 162.765 45.2013 152.894C48.4689 143.023 62.9376 156.184 66.6718 152.894C70.406 149.604 44.2678 138.793 52.6694 130.333Z" fill="#14103A" stroke="#14103A"/>
<path d="M156.968 187.058C159.886 175.464 116.483 169.678 114.293 179.742C112.103 189.807 134.698 212.957 141.476 205.075C148.254 197.192 129.497 191.445 130.39 186.533C131.284 181.621 154.05 198.651 156.968 187.058Z" fill="#14103A" stroke="#14103A"/>
</svg>
