<svg width="238" height="215" viewBox="0 0 238 215" fill="none" xmlns="http://www.w3.org/2000/svg">
<path d="M25.2724 65.9509C63.3683 -9.85306 158.116 -1.13393 182.658 1.98416C207.199 5.10266 243.353 19.6348 236.342 47.4372C231.134 68.0907 196.485 74.19 184.241 73.2506C207.254 81.4166 249.298 112.596 224.8 154.168C200.302 195.74 136.459 197.968 94.1442 183.863C51.8296 169.758 -3.55187 123.306 25.2724 65.9509Z" fill="#DCD1FF"/>
<path d="M7.97947 88.8208C46.0753 13.0168 140.823 21.7359 165.365 24.854C189.906 27.9725 226.06 42.5046 219.049 70.3071C213.841 90.9606 179.193 97.0599 166.948 96.1205C189.961 104.286 232.005 135.466 207.507 177.038C183.009 218.61 119.166 220.837 76.8512 206.733C34.5366 192.628 -20.8448 146.176 7.97947 88.8208Z" fill="#DCD1FF"/>
<path d="M70.0513 24.0163C84.8834 18.1467 100.224 15.8174 112.43 15.4314C117.95 15.2568 122.141 20.0307 121.793 25.5426L121.582 28.8823C121.235 34.3942 116.474 38.5632 110.959 38.8595C101.483 39.3684 89.7915 41.3121 78.642 45.7244C63.255 51.8136 49.9383 62.1289 43.6728 78.9038C35.424 100.989 39.7297 120.621 50.0304 136.406C60.5695 152.557 77.3121 164.444 92.8058 169.609C109.041 175.021 129.518 177.285 147.986 174.254C166.481 171.218 181.339 163.221 189.306 149.7C193.347 142.844 194.311 137.066 193.848 132.247C193.372 127.301 191.298 122.471 187.887 117.842C182.954 111.146 175.788 105.662 169.183 102C164.799 99.5693 162.011 94.6855 163.051 89.7811L164.217 84.2772C165.256 79.3727 169.802 75.8798 174.749 75.0705C178.012 74.5367 181.714 73.6597 185.317 72.3342C193.575 69.2962 197.067 65.5542 197.783 62.7119C198.556 59.6464 198.119 57.4241 197.091 55.4624C195.924 53.2341 193.651 50.755 189.955 48.287C185 44.9786 178.574 42.4153 172.137 40.7173C166.797 39.3087 162.896 34.3509 163.592 28.8721L164.014 25.5528C164.71 20.074 169.73 16.1575 175.11 17.4056C184.445 19.571 194.556 23.287 202.919 28.8708C208.698 32.7295 214.236 37.879 217.772 44.63C221.448 51.6477 222.606 59.7559 220.421 68.4202C217.123 81.4995 206.068 88.9167 196.578 92.973C200.242 96.2518 203.69 99.9313 206.682 103.992C211.983 111.186 216.117 119.941 217.086 130.01C218.067 140.205 215.715 150.87 209.419 161.553C196.715 183.112 174.301 193.593 151.767 197.292C129.204 200.995 104.893 198.247 85.423 191.757C65.2114 185.02 44.0562 169.972 30.4785 149.165C16.6623 127.992 10.6325 100.642 21.8023 70.7354C31.072 45.9168 50.6413 31.6976 70.0513 24.0163Z" fill="#14103A"/>
<path d="M59.9596 94.3614C67.8657 86.4553 93.3408 118.519 86.3126 125.107C79.2843 131.696 49.8572 124.668 52.932 115.444C56.0068 106.22 69.6222 118.519 73.1361 115.444C76.65 112.37 52.0535 102.267 59.9596 94.3614Z" fill="#14103A" stroke="#14103A"/>
<path d="M150.802 144.647C153.531 133.804 112.938 128.392 110.89 137.805C108.842 147.218 129.974 168.869 136.313 161.497C142.652 154.125 125.109 148.75 125.945 144.156C126.781 139.562 148.073 155.489 150.802 144.647Z" fill="#14103A" stroke="#14103A"/>
</svg>
