<svg width="224" height="221" viewBox="0 0 224 221" fill="none" xmlns="http://www.w3.org/2000/svg">
<path d="M31.4808 132.946C17.1089 96.0488 87.1263 -23.8032 148.371 16.0935C209.616 55.9901 228.844 167.497 192.117 194.191C155.39 220.885 45.8527 169.844 31.4808 132.946Z" fill="#FFFAD1"/>
<path d="M4.33473 177C-15.387 143.743 34.4352 34.653 108.347 47.1656C182.259 59.6783 233.335 166 186.835 203.5C140.335 241 24.0565 210.257 4.33473 177Z" fill="#FFFAD1"/>
<path d="M140.333 36C128.333 24 122.751 23 112.833 23C95.3348 23 -3.4448 118.598 14.4037 153.945C32.2522 189.292 123.126 208.54 174.571 196.641C215.728 187.122 191.72 101.332 174.571 73.4513" stroke="#14103A" strokeWidth="20" stroke-linecap="round"/>
<path d="M51.0408 114.045C57.6259 107.413 78.8445 134.307 72.9906 139.833C67.1367 145.359 42.6264 139.464 45.1875 131.728C47.7485 123.991 59.0889 134.307 62.0157 131.728C64.9425 129.149 44.4558 120.676 51.0408 114.045Z" fill="#14103A" stroke="#14103A"/>
<path d="M128.319 151.011C129.959 141.918 96.1897 139.739 95.0303 147.614C93.8709 155.49 112.51 172.152 117.322 165.717C122.133 159.283 107.368 155.838 107.799 152.004C108.23 148.17 126.679 160.103 128.319 151.011Z" fill="#14103A" stroke="#14103A"/>
</svg>
