<svg width="271" height="253" viewBox="0 0 271 253" fill="none" xmlns="http://www.w3.org/2000/svg">
<path d="M72.4441 202.536C40.0212 188.591 28.0178 76.7429 59.1644 40.2724C101.672 0.896074 200.51 -0.333833 239.09 25.5475C277.671 51.4288 256.703 190.581 217.736 208.429C178.77 226.278 112.973 219.967 72.4441 202.536Z" fill="#D1F7FF"/>
<path d="M44.801 225.207C10.9571 213.131 4.59019 126.658 31.8228 66.6259C73.6494 25.533 180.783 19.9986 221.464 43.5378C262.146 67.0771 260.611 200.846 221.464 220.5C182.316 240.155 87.1059 240.302 44.801 225.207Z" fill="#D1F7FF"/>
<path d="M234.627 69.2805C243.238 91.1405 254.633 180.177 213.094 200.28C178.852 216.851 89.4717 219.097 51.1412 188.565C12.8106 158.033 23.2094 87.3269 50.4734 53.2349C77.7372 19.1429 167.735 17.9944 203.382 36.4207" stroke="#14103A" strokeWidth="22" stroke-linecap="round"/>
<path d="M55.8194 137.038C53.3545 134.917 51.8291 124.8 62.2636 125.579C67.4809 125.968 74.2417 127.794 79.3928 133.311C84.2507 138.514 84.8218 144.043 83.58 147.5C82.3821 150.835 77.2884 150.257 75.6346 148.52C73.9807 146.783 71.9315 144.489 68.5898 141.863C65.2482 139.237 57.7913 138.734 55.8194 137.038Z" fill="#14103A" stroke="#14103A"/>
<path d="M123.688 179.629C126.543 181.113 136.377 178.789 131.805 169.487C129.519 164.837 125.346 159.296 118.386 156.595C111.822 154.047 106.545 155.558 103.836 157.972C101.223 160.301 103.636 164.769 105.839 165.649C108.043 166.529 110.903 167.567 114.544 169.671C118.186 171.775 121.405 178.441 123.688 179.629Z" fill="#14103A" stroke="#14103A"/>
</svg>
