<svg width="238" height="210" viewBox="0 0 238 210" fill="none" xmlns="http://www.w3.org/2000/svg">
<path d="M0.000482196 109.926C0.000425947 58.6307 41.3643 30.0741 88.856 22.1418C136.348 14.2095 166.477 23.7284 190.989 50.1696C215.501 76.6107 231.205 124.438 197.709 162.121C172.66 190.302 133.795 219.708 81.1962 206.701C32.6831 194.704 0.000540137 162.764 0.000482196 109.926Z" fill="#D1FFE1"/>
<path d="M25.8501 89.3549C25.85 38.0592 65.3022 9.50261 110.599 1.57031C142.235 -3.96979 177.512 5.12238 192.273 29.2768C192.273 29.2768 215.988 -12.3225 234.295 5.56966C248.783 19.7298 215.989 48.0636 215.989 48.0636C227.455 72.717 232.055 105.454 215.989 140.651C201.988 171.322 153.46 199.137 103.293 186.129C57.0222 174.132 25.8501 142.193 25.8501 89.3549Z" fill="#D1FFE1"/>
<path d="M82.3939 31.6374C82.3939 31.6374 50.4948 35.0172 28.3364 67.7057C6.17801 100.394 23.4904 136.949 38.9124 154.199C54.3343 171.449 87.5096 186.01 109.942 186.01C132.375 186.01 165.308 178.912 183.3 157.83C201.293 136.748 207.489 102.449 203.082 77.7502C198.675 53.0513 179.509 23.1005 157.25 19.3354C134.992 15.5702 115.69 25.4279 115.69 44.0342C115.689 62.6406 138.175 72.8184 160.738 67.7057C183.3 62.5929 216.401 19.3354 216.401 19.3354" stroke="#14103A" strokeWidth="22" stroke-linecap="round"/>
<path d="M48.6741 114.037C46.4905 111.917 45.1392 101.8 54.3831 102.579C59.005 102.968 64.9944 104.794 69.5577 110.311C73.8613 115.514 74.3673 121.042 73.2672 124.499C72.206 127.834 67.6935 127.257 66.2284 125.52C64.7632 123.783 62.9478 121.489 59.9875 118.863C57.0271 116.237 50.4211 115.733 48.6741 114.037Z" fill="#14103A" stroke="#14103A"/>
<path d="M108.801 156.628C111.329 158.112 120.042 155.788 115.992 146.487C113.966 141.836 110.269 136.296 104.103 133.594C98.2885 131.047 93.6136 132.558 91.2141 134.972C88.8992 137.301 91.0369 141.769 92.9886 142.649C94.9404 143.529 97.474 144.567 100.7 146.671C103.927 148.774 106.778 155.441 108.801 156.628Z" fill="#14103A" stroke="#14103A"/>
</svg>
