<svg width="287" height="277" viewBox="0 0 287 277" fill="none" xmlns="http://www.w3.org/2000/svg">
<path d="M24.5908 79.8038C49.6016 48.636 96.9029 36.8301 130.768 42.4833C226.671 58.493 250.125 109.345 261.067 142.492C273.918 181.421 256.902 216.991 219.285 246.845C163.942 290.768 91.9096 282.423 45.3514 246.845C13.4476 222.466 -26.8392 143.895 24.5908 79.8038Z" fill="#FFCDB7"/>
<path d="M54.7479 43.4658C78.703 10.6388 125.119 -4.69456 157.555 1.25965C249.41 18.1215 271.874 71.6806 282.355 106.592C294.663 147.593 276.754 195.247 237.294 231.033C202.289 262.779 114.635 242.512 74.2111 209.685C30.7757 174.412 5.48858 110.968 54.7479 43.4658Z" fill="#FFCDB7"/>
<path d="M176.959 33.5288C125.263 10.9572 67.8277 34.6071 44.8558 66.1561C-2.3814 131.031 21.8677 192.005 63.5202 225.904C102.285 257.453 166.312 260.066 207.247 240.884C239.214 225.904 264.965 187.111 264.965 148.905C264.965 110.699 244.321 75.547 225.279 61.6178" stroke="#14103A" stroke-width="25" stroke-linecap="round"/>
<path d="M52.5923 163.128C49.479 160.837 46.7724 149 59.2257 149C65.4524 149 73.6383 150.564 80.2406 156.637C86.4671 162.365 87.6347 168.856 86.4671 173.056C85.3407 177.108 79.2441 176.874 77.1273 174.965C75.0105 173.056 72.3752 170.522 68.1765 167.71C63.9779 164.898 55.083 164.961 52.5923 163.128Z" fill="#14103A" stroke="#14103A"/>
<path d="M143.153 213.051C146.528 214.935 158.422 212.495 153.263 201.16C150.684 195.493 145.87 188.69 137.607 185.197C129.815 181.903 123.423 183.529 120.084 186.332C116.862 189.036 119.601 194.488 122.215 195.623C124.83 196.759 128.227 198.108 132.526 200.765C136.825 203.421 140.453 211.543 143.153 213.051Z" fill="#14103A" stroke="#14103A"/>
</svg>
