<svg width="224" height="221" viewBox="0 0 224 221" fill="none" xmlns="http://www.w3.org/2000/svg">
<path d="M31.4808 132.946C17.1089 96.0488 87.1263 -23.8032 148.371 16.0935C209.616 55.9901 228.844 167.497 192.117 194.191C155.39 220.885 45.8527 169.844 31.4808 132.946Z" fill="#FFFAD1"/>
<path d="M4.33473 177C-15.387 143.743 34.4352 34.6529 108.347 47.1655C182.259 59.6782 233.335 166 186.835 203.5C140.335 241 24.0565 210.257 4.33473 177Z" fill="#FFFAD1"/>
<path d="M140.333 36C128.333 24 122.751 23 112.833 23C95.3348 23 -3.4448 118.598 14.4037 153.945C32.2522 189.292 123.126 208.54 174.571 196.641C215.728 187.122 191.72 101.332 174.571 73.4513" stroke="#14103A" strokeWidth="20" strokeLinecap="round"/>
<path d="M41.8212 131.871C39.4585 130.108 37.4044 121 46.8553 121C51.5808 121 57.7932 122.203 62.8037 126.876C67.5291 131.284 68.4151 136.279 67.5291 139.511C66.6742 142.629 62.0475 142.449 60.441 140.98C58.8346 139.511 56.8346 137.561 53.6482 135.397C50.4618 133.233 43.7114 133.282 41.8212 131.871Z" fill="#14103A" stroke="#14103A"/>
<path d="M105.15 165.119C107.736 166.563 116.851 164.694 112.898 156.008C110.921 151.666 107.232 146.453 100.901 143.776C94.9297 141.252 90.0319 142.498 87.4732 144.645C85.0046 146.717 87.103 150.895 89.1065 151.765C91.1099 152.636 93.7135 153.669 97.0076 155.705C100.302 157.741 103.081 163.964 105.15 165.119Z" fill="#14103A" stroke="#14103A"/>
</svg>
