<svg width="269" height="261" viewBox="0 0 269 261" fill="none" xmlns="http://www.w3.org/2000/svg">
<path d="M70.7761 202.535C38.3533 188.59 26.3499 76.7427 57.4964 40.2721C100.004 0.89583 198.842 -0.334077 237.422 25.5472C276.003 51.4285 255.035 190.58 216.068 208.429C177.102 226.278 111.305 219.967 70.7761 202.535Z" fill="#ACF1FF"/>
<path d="M40.6327 222C16.6329 207 0.421882 123.451 27.6545 63.4187C69.4811 22.3258 179.115 19.9983 219.796 43.5375C260.478 67.0767 267.296 185.957 217.796 222C168.296 258.043 78.7224 245.806 40.6327 222Z" fill="#ACF1FF"/>
<path d="M233.631 77.4996C242.131 97.9996 253.082 181.613 211.461 200.709C177.151 216.451 87.7955 219.002 49.6311 190.5C11.4666 161.997 22.2098 78.9462 49.6309 46.7746C77.0519 14.6029 167.019 13.0798 202.561 30.2196" stroke="#14103A" stroke-width="22" stroke-linecap="round"/>
<path d="M124.274 173.511C121.707 178.401 115.662 180.284 110.772 177.717L107.809 176.162C102.919 173.595 101.036 167.549 103.603 162.659L110.852 148.851C113.419 143.961 119.465 142.078 124.355 144.645L127.317 146.201C132.207 148.768 134.09 154.813 131.523 159.703L124.274 173.511Z" fill="#14103A"/>
<path d="M77.0728 148.829C74.5056 153.719 68.4606 155.602 63.5707 153.035L61.6386 152.021C56.7485 149.454 54.8654 143.408 57.4326 138.518L63.8568 126.281C66.4239 121.392 72.4692 119.509 77.3591 122.076L79.2913 123.09C84.1812 125.657 86.0642 131.702 83.497 136.592L77.0728 148.829Z" fill="#14103A"/>
</svg>
