<svg width="238" height="210" viewBox="0 0 238 210" fill="none" xmlns="http://www.w3.org/2000/svg">
<path d="M0.000482196 109.926C0.000425947 58.6307 41.3643 30.0741 88.856 22.1418C136.348 14.2095 166.477 23.7284 190.989 50.1696C215.501 76.6107 231.205 124.438 197.709 162.121C172.66 190.302 133.795 219.708 81.1962 206.701C32.6831 194.704 0.000540137 162.764 0.000482196 109.926Z" fill="#B2FFCD"/>
<path d="M25.8501 89.3549C25.85 38.0592 65.3022 9.50261 110.599 1.57031C142.235 -3.96979 177.512 5.12238 192.273 29.2768C192.273 29.2768 215.988 -12.3225 234.295 5.56966C248.783 19.7298 215.989 48.0636 215.989 48.0636C227.455 72.717 232.055 105.454 215.989 140.651C201.988 171.322 153.46 199.137 103.293 186.129C57.0222 174.132 25.8501 142.193 25.8501 89.3549Z" fill="#B2FFCD"/>
<path d="M113.173 146.304C110.606 151.194 104.561 153.077 99.6711 150.51L98.8868 150.098C93.9968 147.531 92.1137 141.486 94.6809 136.596L100.186 126.109C102.753 121.219 108.799 119.336 113.689 121.904L114.473 122.315C119.363 124.882 121.246 130.928 118.679 135.818L113.173 146.304Z" fill="#14103A"/>
<path d="M70.9088 124.292C68.3616 129.144 62.3636 131.012 57.5118 128.465C52.6597 125.918 50.7913 119.92 53.3385 115.068L58.1782 105.849C60.7254 100.997 66.7236 99.1292 71.5755 101.676C76.4274 104.224 78.2957 110.222 75.7485 115.074L70.9088 124.292Z" fill="#14103A"/>
<path d="M82.3939 31.6374C82.3939 31.6374 50.4948 35.0172 28.3364 67.7057C6.17801 100.394 23.4904 136.949 38.9124 154.199C54.3344 171.449 87.5096 186.01 109.942 186.01C132.375 186.01 165.308 178.912 183.3 157.83C201.293 136.748 207.489 102.449 203.082 77.7502C198.675 53.0513 179.509 23.1005 157.25 19.3354C134.992 15.5702 115.69 25.4279 115.69 44.0342C115.689 62.6406 138.175 72.8184 160.738 67.7057C183.3 62.5929 216.401 19.3354 216.401 19.3354" stroke="#14103A" stroke-width="22" stroke-linecap="round"/>
</svg>
