<svg width="287" height="277" viewBox="0 0 287 277" fill="none" xmlns="http://www.w3.org/2000/svg">
<path d="M24.5908 79.8038C49.6016 48.636 96.9029 36.8301 130.768 42.4833C226.671 58.493 250.125 109.345 261.067 142.492C273.918 181.421 256.902 216.991 219.285 246.845C163.942 290.768 91.9096 282.423 45.3514 246.845C13.4476 222.466 -26.8392 143.895 24.5908 79.8038Z" fill="#FFCDB7"/>
<path d="M54.7479 43.4658C78.703 10.6388 125.119 -4.69456 157.555 1.25965C249.41 18.1215 271.874 71.6806 282.355 106.592C294.663 147.593 276.754 195.247 237.294 231.033C202.289 262.779 114.635 242.512 74.2111 209.685C30.7757 174.412 5.48858 110.968 54.7479 43.4658Z" fill="#FFCDB7"/>
<path d="M176.959 33.5288C125.263 10.9572 67.8277 34.6071 44.8558 66.1561C-2.3814 131.031 21.8677 192.005 63.5202 225.904C102.285 257.453 166.312 260.066 207.247 240.884C239.214 225.904 264.965 187.111 264.965 148.905C264.965 110.699 244.321 75.547 225.279 61.6178" stroke="#14103A" stroke-width="25" stroke-linecap="round"/>
<path d="M140.775 199.351C138.208 204.241 132.163 206.124 127.273 203.557L124.311 202.002C119.421 199.435 117.537 193.389 120.105 188.499L127.354 174.691C129.921 169.801 135.966 167.918 140.856 170.485L143.819 172.041C148.709 174.608 150.592 180.653 148.025 185.543L140.775 199.351Z" fill="#14103A"/>
<path d="M84.9122 172.829C82.345 177.719 76.3 179.602 71.4101 177.035L69.478 176.021C64.5879 173.454 62.7048 167.409 65.272 162.519L71.6962 150.282C74.2634 145.392 80.3086 143.509 85.1985 146.076L87.1307 147.09C92.0206 149.658 93.9036 155.703 91.3364 160.593L84.9122 172.829Z" fill="#14103A"/>
</svg>
