<svg width="238" height="215" viewBox="0 0 238 215" fill="none" xmlns="http://www.w3.org/2000/svg">
<path d="M25.2724 65.9509C63.3683 -9.85306 158.116 -1.13393 182.658 1.98416C207.199 5.10266 243.353 19.6348 236.342 47.4372C231.134 68.0907 196.485 74.19 184.241 73.2506C207.254 81.4166 249.298 112.596 224.8 154.168C200.302 195.74 136.459 197.968 94.1442 183.863C51.8296 169.758 -3.55187 123.306 25.2724 65.9509Z" fill="#DCD1FF"/>
<path d="M7.97947 88.8208C46.0753 13.0168 140.823 21.7359 165.365 24.854C189.906 27.9725 226.06 42.5046 219.049 70.3071C213.841 90.9606 179.193 97.0599 166.948 96.1205C189.961 104.286 232.005 135.466 207.507 177.038C183.009 218.61 119.166 220.837 76.8512 206.733C34.5366 192.628 -20.8448 146.176 7.97947 88.8208Z" fill="#DCD1FF"/>
<path d="M70.0513 24.0164C84.8834 18.1468 100.224 15.8175 112.43 15.4315C117.95 15.2569 122.141 20.0308 121.793 25.5427L121.582 28.8824C121.235 34.3943 116.474 38.5634 110.959 38.8596C101.483 39.3686 89.7915 41.3122 78.642 45.7245C63.255 51.8137 49.9383 62.129 43.6728 78.9039C35.424 100.99 39.7297 120.621 50.0304 136.406C60.5695 152.557 77.3121 164.445 92.8058 169.609C109.041 175.021 129.518 177.285 147.986 174.254C166.481 171.218 181.339 163.221 189.306 149.7C193.347 142.844 194.311 137.066 193.848 132.247C193.372 127.302 191.298 122.471 187.887 117.842C182.954 111.146 175.788 105.662 169.183 102C164.799 99.5694 162.011 94.6856 163.051 89.7812L164.217 84.2773C165.256 79.3728 169.802 75.88 174.749 75.0706C178.012 74.5369 181.714 73.6598 185.317 72.3343C193.575 69.2964 197.067 65.5543 197.783 62.712C198.556 59.6465 198.119 57.4242 197.091 55.4625C195.924 53.2342 193.651 50.7552 189.955 48.2871C185 44.9787 178.574 42.4154 172.137 40.7175C166.797 39.3088 162.896 34.351 163.592 28.8723L164.014 25.5529C164.71 20.0741 169.73 16.1576 175.11 17.4057C184.445 19.5712 194.556 23.2871 202.919 28.8709C208.698 32.7296 214.236 37.8792 217.772 44.6301C221.448 51.6478 222.606 59.756 220.421 68.4203C217.123 81.4996 206.068 88.9168 196.578 92.9731C200.242 96.2519 203.69 99.9314 206.682 103.992C211.983 111.186 216.117 119.941 217.086 130.01C218.067 140.205 215.715 150.87 209.419 161.553C196.715 183.112 174.301 193.593 151.767 197.292C129.204 200.995 104.893 198.247 85.423 191.757C65.2114 185.02 44.0562 169.972 30.4785 149.165C16.6623 127.992 10.6325 100.642 21.8023 70.7356C31.072 45.917 50.6413 31.6977 70.0513 24.0164Z" fill="#14103A"/>
<path d="M129.479 147.811C126.912 152.701 120.867 154.584 115.977 152.017L113.014 150.461C108.124 147.894 106.241 141.849 108.808 136.959L116.058 123.151C118.625 118.261 124.67 116.378 129.56 118.945L132.523 120.501C137.413 123.068 139.296 129.113 136.728 134.003L129.479 147.811Z" fill="#14103A"/>
<path d="M82.278 123.129C79.7109 128.019 73.6658 129.902 68.7759 127.335L66.8438 126.32C61.9537 123.753 60.0706 117.708 62.6378 112.818L69.062 100.581C71.6292 95.6911 77.6744 93.8081 82.5643 96.3753L84.4965 97.3897C89.3865 99.9569 91.2694 106.002 88.7022 110.892L82.278 123.129Z" fill="#14103A"/>
</svg>
