<svg width="398" height="363" viewBox="0 0 398 363" fill="none" xmlns="http://www.w3.org/2000/svg">
<path d="M104.67 60.8105C137.341 42.2469 155.809 81.0653 186.309 59.0653C216.809 37.0653 258.463 27.197 298.421 49.8105C338.378 72.424 321.291 107.331 328.581 133.583C333.727 152.114 385.925 186.132 372.461 215.158C358.996 244.185 311.591 250.565 298.421 265.065C285.25 279.565 271.913 315.041 240.809 326.065C201.309 340.065 154.717 299.299 135.309 283.065C108.934 261.005 103.356 255.597 89.898 219.415C76.4398 183.233 103.231 180.563 104.67 142.127C105.9 109.298 66.0106 82.777 104.67 60.8105Z" fill="#FFB4CF"/>
<path d="M95.3104 61.7932C129.332 45.6466 126.781 82.1596 167.81 68.5654C198.582 58.3697 210.275 41.1113 251.386 61.7932C292.497 82.475 275.793 118.411 284.383 144.339C290.447 162.641 344.374 194.141 332.325 223.866C320.277 253.591 297.881 244.334 278.422 258.811C258.963 273.288 258.072 300.772 226.422 316.811C191.969 334.27 151.633 312.731 131.406 297.429C103.918 276.635 64.944 277.562 49.69 241.994C34.436 206.426 61.1229 202.438 60.6699 163.882C60.2829 130.95 27.3103 94.0654 95.3104 61.7932Z" fill="#FFB4CF"/>
<path d="M299.876 139.295C310.751 170.067 353.597 188.252 343.574 216.05C333.55 243.847 298.25 243.292 279.364 257.428C260.478 271.563 267.437 292.516 236.698 308.148C203.237 325.165 173.173 299.303 153.457 284.247C126.662 263.787 88.7572 264.586 73.8205 229.679C58.8837 194.772 84.8292 190.939 84.28 153.144C83.8109 120.864 66.4354 95.0988 102.955 71.7858C133.818 52.0844 147.444 81.7881 187.313 68.5785C217.215 58.6712 229.162 44.2816 257.933 53.4391C286.703 62.5967 289.164 93.6466 289.164 93.6466" stroke="#14103A" stroke-width="25" stroke-linecap="round"/>
<path d="M203.926 240.275C201.359 245.165 195.314 247.048 190.424 244.481L187.461 242.925C182.571 240.358 180.688 234.313 183.256 229.423L190.505 215.615C193.072 210.725 199.117 208.842 204.007 211.409L206.97 212.964C211.86 215.532 213.743 221.577 211.175 226.467L203.926 240.275Z" fill="#14103A"/>
<path d="M147.862 212.14C145.295 217.03 139.25 218.913 134.36 216.346L132.428 215.332C127.538 212.764 125.655 206.719 128.222 201.829L134.646 189.592C137.213 184.702 143.258 182.819 148.148 185.387L150.08 186.401C154.97 188.968 156.853 195.013 154.286 199.903L147.862 212.14Z" fill="#14103A"/>
</svg>
