<svg width="224" height="221" viewBox="0 0 224 221" fill="none" xmlns="http://www.w3.org/2000/svg">
<path d="M31.4808 132.946C17.1089 96.0488 87.1263 -23.8032 148.371 16.0935C209.616 55.9901 228.844 167.497 192.117 194.191C155.39 220.885 45.8527 169.844 31.4808 132.946Z" fill="#FFF4A1"/>
<path d="M4.33473 177C-15.387 143.743 34.4352 34.6529 108.347 47.1655C182.259 59.6782 233.335 166 186.835 203.5C140.335 241 24.0565 210.257 4.33473 177Z" fill="#FFF4A1"/>
<path d="M140.333 36C128.333 24 122.751 23 112.833 23C95.3348 23 -3.4448 118.598 14.4037 153.945C32.2522 189.292 123.126 208.54 174.571 196.641C215.728 187.122 191.72 101.332 174.571 73.4513" stroke="#14103A" strokeWidth="20" stroke-linecap="round"/>
<path d="M109.618 163.208C107.051 168.097 101.006 169.98 96.1162 167.413L94.794 166.719C89.904 164.152 88.0209 158.107 90.5881 153.217L96.524 141.91C99.0912 137.02 105.136 135.137 110.026 137.704L111.349 138.398C116.238 140.966 118.121 147.011 115.554 151.901L109.618 163.208Z" fill="#14103A"/>
<path d="M66.1651 140.485C63.598 145.374 57.5529 147.257 52.663 144.69L52.2897 144.494C47.3996 141.927 45.5165 135.882 48.0837 130.992L53.2602 121.132C55.8274 116.242 61.8726 114.359 66.7625 116.926L67.1359 117.122C72.0259 119.689 73.9088 125.734 71.3416 130.624L66.1651 140.485Z" fill="#14103A"/>
</svg>
