<svg width="48" height="48" viewBox="0 0 48 48" fill="none" xmlns="http://www.w3.org/2000/svg">
<path d="M46.4732 28.0147C49.416 30.5109 47.6652 35.321 43.8064 35.3416L31.2225 35.4089C30.0093 35.4153 28.8595 35.9515 28.0747 36.8767L19.9344 46.4733C17.4382 49.4161 12.6281 47.6654 12.6075 43.8065L12.5403 31.2227C12.5338 30.0095 11.9976 28.8596 11.0724 28.0748L1.47586 19.9346C-1.46695 17.4383 0.283779 12.6283 4.14264 12.6076L16.7265 12.5404C17.9397 12.5339 19.0895 11.9977 19.8743 11.0725L28.0146 1.47598C30.5108 -1.46682 35.3209 0.283905 35.3415 4.14276L35.4087 16.7266C35.4152 17.9398 35.9514 19.0896 36.8766 19.8745L46.4732 28.0147Z" fill="#FFD1E2"/>
</svg>
