<svg width="272" height="253" viewBox="0 0 272 253" fill="none" xmlns="http://www.w3.org/2000/svg">
<path d="M73.437 202.536C41.0142 188.591 29.0108 76.7431 60.1573 40.2726C102.665 0.896318 201.503 -0.333589 240.083 25.5477C278.664 51.429 257.695 190.581 218.729 208.43C179.763 226.278 113.966 219.967 73.437 202.536Z" fill="#ACF1FF"/>
<path d="M44.7924 225.207C10.9485 213.131 4.5816 126.658 31.8142 66.6259C73.6408 25.533 181.774 19.9987 222.456 43.5379C263.138 67.0771 257.44 201.846 218.292 221.5C179.145 241.155 87.0973 240.302 44.7924 225.207Z" fill="#ACF1FF"/>
<path d="M235.501 67.8125C244.132 89.9155 255.606 179.92 214.082 200.203C179.852 216.923 90.467 219.114 52.1068 188.22C13.7466 157.325 24.0838 85.8669 51.3197 51.4319C78.5555 16.9969 168.559 15.9154 204.225 34.5714" stroke="#14103A" stroke-width="22" stroke-linecap="round"/>
<path d="M136.647 174.285C134.089 179.258 127.952 181.172 123.026 178.533L121.101 177.501C116.294 174.925 114.442 168.971 116.938 164.118L123.434 151.487C125.992 146.513 132.129 144.6 137.055 147.239L138.981 148.271C143.787 150.847 145.639 156.801 143.143 161.654L136.647 174.285Z" fill="#14103A"/>
<path d="M61.2774 141.46C58.324 139.277 55.7565 128 67.5701 128C73.4769 128 81.2424 129.49 87.5056 135.276C93.4123 140.732 94.5199 146.917 93.4123 150.918C92.3438 154.779 86.5603 154.556 84.5522 152.737C82.5442 150.918 80.0442 148.504 76.0612 145.825C72.0782 143.146 63.6401 143.206 61.2774 141.46Z" fill="#14103A" stroke="#14103A"/>
</svg>
