<svg width="238" height="210" viewBox="0 0 238 210" fill="none" xmlns="http://www.w3.org/2000/svg">
<path d="M0.000482196 109.926C0.000425947 58.6307 41.3643 30.0741 88.856 22.1418C136.348 14.2095 166.477 23.7284 190.989 50.1696C215.501 76.6107 231.205 124.438 197.709 162.121C172.66 190.302 133.795 219.708 81.1962 206.701C32.6831 194.704 0.000540137 162.764 0.000482196 109.926Z" fill="#D1FFE1"/>
<path d="M25.8501 89.3549C25.85 38.0592 65.3022 9.50261 110.599 1.57031C142.235 -3.96979 177.512 5.12238 192.273 29.2768C192.273 29.2768 215.988 -12.3225 234.295 5.56966C248.783 19.7298 215.989 48.0636 215.989 48.0636C227.455 72.717 232.055 105.454 215.989 140.651C201.988 171.322 153.46 199.137 103.293 186.129C57.0222 174.132 25.8501 142.193 25.8501 89.3549Z" fill="#D1FFE1"/>
<path d="M82.3939 31.6374C82.3939 31.6374 50.4948 35.0172 28.3364 67.7057C6.17801 100.394 23.4904 136.949 38.9124 154.199C54.3343 171.449 87.5096 186.01 109.942 186.01C132.375 186.01 165.308 178.912 183.3 157.83C201.293 136.748 207.489 102.449 203.082 77.7502C198.675 53.0513 179.509 23.1005 157.25 19.3354C134.992 15.5702 115.69 25.4279 115.69 44.0342C115.689 62.6406 138.175 72.8184 160.738 67.7057C183.3 62.5929 216.401 19.3354 216.401 19.3354" stroke="#14103A" strokeWidth="22" stroke-linecap="round"/>
<path d="M119.674 149.295C117.107 154.185 111.062 156.068 106.172 153.501L105.387 153.089C100.497 150.522 98.614 144.476 101.181 139.586L106.687 129.098C109.254 124.208 115.3 122.325 120.19 124.893L120.975 125.305C125.865 127.872 127.748 133.917 125.181 138.807L119.674 149.295Z" fill="#14103A"/>
<path d="M50.3418 120.424C47.5572 118.41 45.1364 108 56.275 108C61.8442 108 69.1659 109.375 75.0712 114.716C80.6404 119.753 81.6847 125.461 80.6404 129.155C79.6329 132.718 74.18 132.513 72.2867 130.834C70.3933 129.155 68.0362 126.927 64.2808 124.454C60.5254 121.981 52.5695 122.036 50.3418 120.424Z" fill="#14103A" stroke="#14103A"/>
</svg>
