<svg width="287" height="277" viewBox="0 0 287 277" fill="none" xmlns="http://www.w3.org/2000/svg">
<path d="M24.5908 79.8038C49.6016 48.636 96.9029 36.8301 130.768 42.4833C226.671 58.493 250.125 109.345 261.067 142.492C273.918 181.421 256.902 216.991 219.285 246.845C163.942 290.768 91.9096 282.423 45.3514 246.845C13.4476 222.466 -26.8392 143.895 24.5908 79.8038Z" fill="#FFDFD1"/>
<path d="M54.7479 43.4658C78.703 10.6388 125.119 -4.69456 157.555 1.25965C249.41 18.1215 271.874 71.6806 282.355 106.592C294.663 147.593 276.754 195.247 237.294 231.033C202.289 262.779 114.635 242.512 74.2111 209.685C30.7757 174.412 5.48858 110.968 54.7479 43.4658Z" fill="#FFDFD1"/>
<path d="M176.959 33.5288C125.263 10.9572 67.8277 34.6071 44.8558 66.1561C-2.3814 131.031 21.8677 192.005 63.5202 225.904C102.285 257.453 166.312 260.066 207.247 240.884C239.214 225.904 264.965 187.111 264.965 148.905C264.965 110.699 244.321 75.547 225.279 61.6178" stroke="#14103A" strokeWidth="25" strokeLinecap="round"/>
<path d="M139.981 202.964C137.413 207.854 131.368 209.737 126.478 207.17L123.516 205.615C118.626 203.048 116.743 197.002 119.31 192.112L126.559 178.304C129.126 173.414 135.171 171.531 140.061 174.098L143.024 175.654C147.914 178.221 149.797 184.266 147.23 189.156L139.981 202.964Z" fill="#14103A"/>
<path d="M53.5904 163.128C50.4771 160.837 47.7705 149 60.2238 149C66.4504 149 74.6363 150.564 81.2386 156.637C87.4652 162.364 88.6327 168.856 87.4652 173.056C86.3388 177.108 80.2421 176.874 78.1254 174.965C76.0086 173.056 73.3732 170.522 69.1746 167.71C64.9759 164.898 56.081 164.961 53.5904 163.128Z" fill="#14103A" stroke="#14103A"/>
</svg>
