<svg width="238" height="215" viewBox="0 0 238 215" fill="none" xmlns="http://www.w3.org/2000/svg">
<path d="M25.2722 65.9509C63.368 -9.85306 158.116 -1.13393 182.658 1.98416C207.199 5.10266 243.353 19.6348 236.342 47.4372C231.134 68.0907 196.485 74.19 184.241 73.2506C207.254 81.4166 249.297 112.596 224.8 154.168C200.302 195.74 136.459 197.968 94.144 183.863C51.8293 169.758 -3.55211 123.306 25.2722 65.9509Z" fill="#DCD1FF"/>
<path d="M7.97923 88.8208C46.0751 13.0168 140.823 21.7359 165.365 24.854C189.906 27.9725 226.06 42.5046 219.049 70.3071C213.841 90.9606 179.192 97.0599 166.948 96.1205C189.961 104.286 232.005 135.466 207.507 177.038C183.009 218.61 119.166 220.837 76.851 206.733C34.5364 192.628 -20.8451 146.176 7.97923 88.8208Z" fill="#DCD1FF"/>
<path d="M70.0511 24.0164C84.8831 18.1468 100.224 15.8175 112.43 15.4315C117.95 15.2569 122.14 20.0308 121.793 25.5427L121.582 28.8824C121.234 34.3943 116.474 38.5634 110.959 38.8596C101.483 39.3686 89.7912 41.3122 78.6417 45.7245C63.2548 51.8137 49.938 62.129 43.6726 78.9039C35.4237 100.99 39.7295 120.621 50.0301 136.406C60.5692 152.557 77.3119 164.445 92.8056 169.609C109.041 175.021 129.518 177.285 147.985 174.254C166.481 171.218 181.339 163.221 189.306 149.7C193.346 142.844 194.311 137.066 193.847 132.247C193.372 127.302 191.298 122.471 187.887 117.842C182.953 111.146 175.788 105.662 169.183 102C164.799 99.5694 162.011 94.6856 163.05 89.7812L164.216 84.2773C165.255 79.3728 169.801 75.88 174.749 75.0706C178.012 74.5369 181.713 73.6598 185.317 72.3343C193.575 69.2964 197.066 65.5543 197.783 62.712C198.556 59.6465 198.119 57.4242 197.091 55.4625C195.924 53.2342 193.651 50.7552 189.954 48.2871C185 44.9787 178.574 42.4154 172.137 40.7175C166.797 39.3088 162.896 34.351 163.592 28.8723L164.013 25.5529C164.71 20.0741 169.73 16.1576 175.11 17.4057C184.444 19.5712 194.556 23.2871 202.919 28.8709C208.698 32.7296 214.236 37.8792 217.772 44.6301C221.448 51.6478 222.606 59.756 220.421 68.4203C217.123 81.4996 206.067 88.9168 196.578 92.9731C200.242 96.2519 203.689 99.9314 206.682 103.992C211.983 111.186 216.117 119.941 217.086 130.01C218.067 140.205 215.714 150.87 209.419 161.553C196.715 183.112 174.301 193.593 151.767 197.292C129.204 200.995 104.893 198.247 85.4227 191.757C65.2111 185.02 44.0559 169.972 30.4782 149.165C16.6621 127.992 10.6322 100.642 21.8021 70.7356C31.0717 45.917 50.641 31.6977 70.0511 24.0164Z" fill="#14103A"/>
<path d="M126.249 147.831C123.682 152.721 117.637 154.604 112.747 152.037L110.698 150.96C105.808 148.393 103.924 142.348 106.492 137.458L113.01 125.042C115.577 120.152 121.622 118.269 126.512 120.836L128.562 121.912C133.452 124.479 135.335 130.525 132.768 135.415L126.249 147.831Z" fill="#14103A"/>
<path d="M52.5559 116.023C49.6025 113.84 47.0349 102.563 58.8486 102.563C64.7554 102.563 72.5208 104.053 78.784 109.839C84.6908 115.295 85.7983 121.48 84.6908 125.481C83.6222 129.342 77.8387 129.119 75.8307 127.3C73.8226 125.481 71.3226 123.067 67.3396 120.388C63.3566 117.709 54.9186 117.769 52.5559 116.023Z" fill="#14103A" stroke="#14103A"/>
</svg>
