<svg width="398" height="363" viewBox="0 0 398 363" fill="none" xmlns="http://www.w3.org/2000/svg">
<path d="M104.671 60.8105C137.342 42.2469 155.809 81.0653 186.309 59.0653C216.809 37.0653 258.464 27.197 298.421 49.8105C338.378 72.424 321.291 107.331 328.581 133.583C333.727 152.114 385.925 186.132 372.461 215.158C358.996 244.185 311.591 250.565 298.421 265.065C285.25 279.565 271.913 315.041 240.809 326.065C201.309 340.065 154.717 299.299 135.309 283.065C108.934 261.005 103.356 255.597 89.898 219.415C76.4399 183.233 103.232 180.563 104.671 142.127C105.9 109.298 66.0107 82.777 104.671 60.8105Z" fill="#FFD1E2"/>
<path d="M95.3104 61.7932C129.333 45.6466 126.781 82.1596 167.81 68.5654C198.583 58.3697 210.275 41.1113 251.386 61.7932C292.497 82.475 275.793 118.411 284.383 144.339C290.447 162.641 344.374 194.141 332.326 223.866C320.277 253.591 297.881 244.334 278.422 258.811C258.963 273.288 258.072 300.772 226.422 316.811C191.969 334.27 151.633 312.731 131.406 297.429C103.918 276.635 64.9441 277.562 49.6901 241.994C34.4361 206.426 61.123 202.438 60.6699 163.882C60.283 130.95 27.3103 94.0654 95.3104 61.7932Z" fill="#FFD1E2"/>
<path d="M299.876 139.295C310.751 170.067 353.597 188.252 343.574 216.05C333.55 243.847 298.25 243.292 279.364 257.428C260.478 271.563 267.437 292.516 236.698 308.148C203.237 325.165 173.174 299.303 153.457 284.247C126.662 263.787 88.7573 264.586 73.8205 229.679C58.8838 194.772 84.8293 190.939 84.2801 153.144C83.811 120.864 66.4354 95.0988 102.955 71.7858C133.818 52.0844 147.445 81.7881 187.313 68.5785C217.215 58.6712 229.162 44.2816 257.933 53.4391C286.703 62.5967 289.164 93.6466 289.164 93.6466" stroke="#14103A" stroke-width="25" stroke-linecap="round"/>
<path d="M195.008 248.964C192.441 253.854 186.396 255.737 181.506 253.17L178.544 251.615C173.654 249.048 171.77 243.002 174.338 238.112L181.587 224.304C184.154 219.414 190.199 217.531 195.089 220.098L198.052 221.654C202.942 224.221 204.825 230.266 202.258 235.156L195.008 248.964Z" fill="#14103A"/>
<path d="M108.618 209.128C105.505 206.837 102.798 195 115.252 195C121.478 195 129.664 196.564 136.266 202.637C142.493 208.364 143.661 214.856 142.493 219.056C141.367 223.108 135.27 222.874 133.153 220.965C131.036 219.056 128.401 216.522 124.202 213.71C120.004 210.898 111.109 210.961 108.618 209.128Z" fill="#14103A" stroke="#14103A"/>
</svg>
