<svg width="224" height="221" viewBox="0 0 224 221" fill="none" xmlns="http://www.w3.org/2000/svg">
<path d="M31.4808 132.946C17.1089 96.0488 87.1263 -23.8032 148.371 16.0935C209.616 55.9901 228.844 167.497 192.117 194.191C155.39 220.885 45.8527 169.844 31.4808 132.946Z" fill="#FFFAD1"/>
<path d="M4.33473 177C-15.387 143.743 34.4352 34.6529 108.347 47.1655C182.259 59.6782 233.335 166 186.835 203.5C140.335 241 24.0565 210.257 4.33473 177Z" fill="#FFFAD1"/>
<path d="M140.333 36C128.333 24 122.751 23 112.833 23C95.3348 23 -3.4448 118.598 14.4037 153.945C32.2522 189.292 123.126 208.54 174.571 196.641C215.728 187.122 191.72 101.332 174.571 73.4513" stroke="#14103A" strokeWidth="20" stroke-linecap="round"/>
<path d="M108.64 163.001C106.265 167.526 100.671 169.269 96.1453 166.893C91.62 164.518 89.8774 158.923 92.2531 154.398L96.7669 145.8C99.1426 141.275 104.737 139.532 109.262 141.908C113.787 144.284 115.53 149.878 113.154 154.403L108.64 163.001Z" fill="#14103A"/>
<path d="M47.0581 137.389C44.611 135.542 42.4836 126 52.2721 126C57.1663 126 63.6005 127.26 68.79 132.156C73.6842 136.773 74.6019 142.006 73.6842 145.392C72.7988 148.659 68.0068 148.47 66.343 146.931C64.6792 145.392 62.6077 143.35 59.3075 141.083C56.0073 138.816 49.0158 138.866 47.0581 137.389Z" fill="#14103A" stroke="#14103A"/>
</svg>
